<?xml version="1.0" standalone="no"?>
<!DOCTYPE svg PUBLIC "-//W3C//DTD SVG 20010904//EN"
 "http://www.w3.org/TR/2001/REC-SVG-20010904/DTD/svg10.dtd">
<svg version="1.0" xmlns="http://www.w3.org/2000/svg"
 width="192.000000pt" height="192.000000pt" viewBox="0 0 192.000000 192.000000"
 preserveAspectRatio="xMidYMid meet">

<g transform="translate(0.000000,192.000000) scale(0.100000,-0.100000)"
fill="#000000" stroke="none">
<path d="M0 960 l0 -960 190 0 c174 0 190 1 190 18 1 18 8 73 34 252 20 139
61 313 86 364 24 51 79 118 92 114 10 -4 62 -131 74 -182 7 -31 7 -31 15 -6
13 44 10 136 -6 173 -14 33 -13 37 3 46 13 8 10 9 -15 5 -42 -8 -62 11 -55 54
5 38 -6 105 -16 98 -15 -9 -31 10 -26 31 8 29 49 50 68 34 19 -16 32 -8 38 24
5 21 2 25 -13 20 -19 -6 -24 6 -21 45 3 29 -7 55 -27 67 -16 10 -27 9 -57 -3
l-36 -15 6 58 c3 32 8 68 12 81 6 22 4 23 -37 21 -27 -2 -54 4 -69 14 -14 8
-43 19 -65 23 -22 3 -51 13 -65 20 -24 13 -24 13 10 6 36 -7 104 -7 222 0 78
5 103 22 113 74 7 38 27 53 48 35 10 -8 17 -7 25 1 9 9 15 8 25 -6 11 -15 18
-16 53 -7 22 6 64 9 93 8 64 -4 87 11 96 60 7 43 35 85 42 66 3 -7 11 -13 18
-13 9 0 12 -8 9 -24 -3 -19 1 -25 21 -30 27 -7 30 -13 15 -36 -7 -12 -12 -12
-22 -2 -9 9 -9 12 1 12 7 0 9 5 6 10 -12 19 -38 11 -32 -9 3 -14 1 -18 -9 -14
-8 3 -14 -1 -14 -11 0 -9 3 -16 8 -17 4 0 20 -2 35 -3 27 -2 47 -19 47 -42 0
-6 10 -20 23 -31 37 -34 261 -58 308 -32 10 5 23 9 31 9 25 0 -29 -29 -86 -45
-33 -10 -67 -27 -79 -41 -25 -29 -32 -30 -60 -3 l-22 20 -7 -33 c-4 -18 -3
-48 2 -65 4 -18 5 -35 0 -38 -12 -8 -38 4 -44 21 -8 21 -39 16 -58 -10 -23
-32 -34 -76 -18 -76 8 0 4 -13 -9 -36 -19 -31 -28 -74 -17 -74 3 0 17 5 33 11
25 11 49 17 78 20 6 1 67 -17 136 -40 94 -31 139 -51 175 -80 90 -72 109 -108
130 -248 9 -59 27 -137 41 -173 28 -74 40 -197 28 -304 -6 -60 -9 -68 -36 -82
-17 -8 -34 -26 -39 -39 -6 -15 -17 -25 -29 -25 -11 0 -23 -4 -26 -10 -4 -7 57
-10 174 -10 l181 0 0 960 0 960 -960 0 -960 0 0 -960z m1198 849 c-18 -7 -25
-15 -21 -25 4 -10 -2 -17 -16 -21 -11 -3 -21 -9 -21 -13 0 -5 -9 -11 -19 -15
-18 -6 -38 -40 -33 -57 1 -5 -7 -8 -18 -8 -11 0 -26 -12 -34 -27 -10 -18 -15
-22 -16 -12 0 24 65 119 108 156 25 21 47 32 67 32 l30 -1 -27 -9z m-618 -24
c14 -7 34 -22 44 -34 19 -21 19 -21 -2 -21 -11 0 -24 5 -27 10 -4 6 -12 7 -18
4 -7 -4 -9 -4 -5 1 8 9 -55 41 -107 56 -20 5 -10 6 30 2 33 -3 71 -11 85 -18z
m175 -245 c3 -5 1 -10 -4 -10 -6 0 -11 5 -11 10 0 6 2 10 4 10 3 0 8 -4 11
-10z m-525 -151 c22 -13 1 -10 -55 6 l-50 15 45 -6 c25 -4 52 -10 60 -15z
m308 -324 c-3 -3 -9 2 -12 12 -6 14 -5 15 5 6 7 -7 10 -15 7 -18z"/>
<path d="M925 1289 c-11 -17 0 -20 21 -4 17 13 17 14 2 15 -9 0 -20 -5 -23
-11z"/>
<path d="M1054 893 c3 -7 0 -13 -7 -13 -6 0 -2 -7 10 -15 12 -9 20 -22 17 -29
-3 -8 -1 -17 5 -21 6 -3 11 -13 11 -21 0 -10 -8 -7 -27 11 -25 22 -28 23 -31
8 -2 -10 -6 -25 -9 -33 -3 -8 -5 -19 -4 -23 1 -5 4 -38 6 -75 2 -36 9 -70 15
-76 16 -16 11 -77 -10 -123 -10 -24 -22 -43 -25 -43 -3 0 -1 9 5 19 5 11 10
28 10 37 0 15 -3 15 -23 -4 -25 -23 -47 -29 -47 -12 0 6 -12 10 -27 10 -28 1
-28 1 -6 13 13 7 31 29 42 49 15 30 16 41 7 60 -11 21 -19 23 -113 26 -100 3
-102 2 -108 -21 -4 -13 2 -45 14 -74 15 -37 17 -53 8 -62 -16 -16 -34 -14 -49
7 -7 10 -19 22 -27 27 -11 6 -10 2 2 -16 20 -28 22 -50 5 -47 -7 2 -16 -14
-21 -37 -5 -22 -21 -64 -35 -93 -16 -35 -28 -81 -33 -135 -4 -45 -8 -83 -8
-83 -12 -20 -61 -73 -61 -65 0 16 -25 14 -40 -4 -7 -9 -21 -13 -31 -10 -13 4
-19 1 -19 -9 0 -14 45 -16 416 -16 437 0 424 -1 386 43 -11 12 -24 16 -41 12
-23 -4 -29 0 -46 36 -10 23 -25 43 -32 46 -7 3 -21 33 -32 67 -15 51 -18 90
-17 236 1 113 6 183 14 196 10 18 45 136 69 233 4 14 1 26 -8 32 -19 12 -32
11 -24 -1 3 -5 1 -10 -4 -10 -6 0 -11 -15 -11 -32 -1 -31 -1 -32 -15 -13 -8
11 -19 26 -25 33 -6 7 -9 16 -6 20 3 5 -2 9 -10 9 -8 0 -13 -6 -10 -14z"/>
<path d="M660 810 c0 -5 5 -10 11 -10 5 0 7 5 4 10 -3 6 -8 10 -11 10 -2 0 -4
-4 -4 -10z"/>
</g>
</svg>
